# xmcd
#
# Track frame offsets: 
#        150
#        12485
#        26887
#        40015
#        52732
#        64044
#        76175
#        89562
#        102502
#        115727
#        130355
#        143517
#        154507
#        167357
#        181779
#        192582
#        205485
#        218210
#        228465
#        241580
#        251635
#        264872
#        277575
#        289112
#        304020
#        317982
#
# Disc length: 4401 seconds
#
# Revision: 0
# Processed by: cddbd v1.5.1PL0 Copyright (c) Steve Scherf et al.
# Submitted via: ExactAudioCopy v0.95a5
#
DISCID=5f112f1a
DTITLE=Muddy Waters - Hoochie Coochie Man - The Complete Chess Masters
DTITLE=Volume 2, 1952-1958, CD 2
DYEAR=2004
DGENRE=Blues
TTITLE0=I Want To Be Loved
TTITLE1=My Eyes (Keep Me In Trouble)
TTITLE2=Mannish Boy
TTITLE3=I Got To Find My Baby
TTITLE4=Sugar Sweet
TTITLE5=Trouble No More
TTITLE6=Clouds In My Heart
TTITLE7=Forty Days And Forty Nights
TTITLE8=All Aboard
TTITLE9=Just To Be With You
TTITLE10=Don't Go No Farther
TTITLE11=Diamonds At Your Feet
TTITLE12=I Love The Life I Live (I Live The Life I Love)
TTITLE13=Rock Me
TTITLE14=Look What You've Done
TTITLE15=Got My Mojo Working
TTITLE16=Good News
TTITLE17=Evil
TTITLE18=Come Home Baby, I Wish You Would
TTITLE19=Let Me Hang Around
TTITLE20=I Won't Go On
TTITLE21=She's Got It
TTITLE22=Born Lover
TTITLE23=She's Nineteen Years Old
TTITLE24=Close To You
TTITLE25=She's Got It (alternate)
EXTD=
EXTT0=
EXTT1=
EXTT2=
EXTT3=
EXTT4=
EXTT5=
EXTT6=
EXTT7=
EXTT8=
EXTT9=
EXTT10=
EXTT11=
EXTT12=
EXTT13=
EXTT14=
EXTT15=
EXTT16=
EXTT17=
EXTT18=
EXTT19=
EXTT20=
EXTT21=
EXTT22=
EXTT23=
EXTT24=
EXTT25=
PLAYORDER=
